<?xml version="1.0" standalone="no"?>
<!DOCTYPE svg PUBLIC "-//W3C//DTD SVG 20010904//EN"
 "http://www.w3.org/TR/2001/REC-SVG-20010904/DTD/svg10.dtd">
<svg version="1.0" xmlns="http://www.w3.org/2000/svg"
 width="500.000000pt" height="500.000000pt" viewBox="0 0 500.000000 500.000000"
 preserveAspectRatio="xMidYMid meet">
<metadata>
Created by potrace 1.14, written by Peter Selinger 2001-2017
</metadata>
<g transform="translate(0.000000,500.000000) scale(0.100000,-0.100000)"
fill="#000000" stroke="none">
<path d="M2279 4726 c-4 -4 -147 -13 -251 -16 -10 0 -36 -17 -59 -37 -23 -21
-78 -56 -122 -78 -59 -29 -87 -49 -100 -72 -25 -44 -8 -42 21 2 15 23 33 38
53 42 16 3 32 10 35 14 3 5 10 9 16 9 6 0 3 -9 -7 -21 -25 -26 -37 -128 -18
-147 21 -21 15 -37 -6 -18 -11 10 -23 31 -26 47 -7 33 -13 35 -41 14 -10 -8
-27 -15 -36 -15 -27 0 -21 -17 10 -28 15 -5 38 -19 52 -30 l25 -21 -46 -1
c-27 0 -51 -6 -58 -14 -7 -8 -27 -17 -47 -20 -32 -7 -110 -63 -100 -73 3 -3
15 6 28 20 24 25 48 32 98 28 25 -2 25 -2 -5 -15 -34 -15 -161 -146 -142 -146
7 0 25 7 41 15 15 8 38 15 50 15 12 0 27 5 34 12 8 8 12 8 12 1 0 -5 -26 -20
-57 -32 -50 -19 -127 -71 -158 -106 -5 -6 -28 -24 -50 -40 l-40 -30 49 62 c26
34 56 69 67 79 11 10 19 30 19 48 0 17 11 55 25 85 14 30 24 55 22 57 -4 4
-78 -100 -106 -149 -13 -23 -36 -60 -51 -82 -32 -47 -62 -114 -55 -125 5 -8
-29 -78 -46 -94 -13 -13 16 61 34 83 7 10 4 9 -10 -3 -14 -11 -33 -54 -51
-115 -69 -226 -92 -385 -92 -623 0 -172 -1 -181 -24 -221 -52 -89 -61 -264
-21 -417 31 -121 31 -126 -4 -160 -32 -29 -66 -101 -59 -122 3 -7 13 2 23 22
31 60 86 142 91 137 3 -3 -7 -24 -22 -46 -18 -28 -27 -54 -27 -81 0 -22 -4
-40 -8 -40 -5 0 -9 5 -9 12 0 16 -39 -22 -56 -54 -13 -25 -13 -28 1 -28 8 0
15 6 15 13 0 17 36 38 54 31 8 -3 17 -13 20 -22 3 -9 8 -22 12 -29 3 -6 -9
-27 -27 -47 -17 -20 -26 -36 -21 -36 13 0 96 87 144 150 53 70 53 71 22 60
-16 -6 -31 -7 -36 -2 -14 14 12 60 38 66 13 4 30 16 38 29 17 28 30 90 16 82
-6 -3 -10 -12 -10 -18 -1 -7 -14 -27 -29 -45 -32 -37 -46 -30 -36 18 4 19 1
41 -9 62 -17 33 -13 99 6 95 6 -1 12 18 15 43 2 25 8 63 13 85 7 30 5 46 -5
62 -13 19 -12 26 8 65 l21 43 6 -40 c3 -22 2 -58 -3 -79 -4 -23 -4 -51 2 -67
10 -29 0 -94 -18 -112 -16 -16 -13 -30 4 -23 19 7 19 -14 0 -76 -18 -60 -1
-64 25 -5 11 26 19 35 19 23 1 -27 14 -10 34 44 14 36 15 53 6 85 -6 21 -9 57
-6 78 5 35 4 37 -10 20 -13 -17 -14 -16 -9 8 3 15 8 107 11 205 6 181 20 258
52 277 8 5 11 17 7 32 -3 13 1 55 10 94 19 85 19 82 1 75 -8 -4 -15 -2 -15 4
0 5 7 26 15 45 17 41 20 81 5 72 -5 -3 -10 -2 -10 4 0 5 4 13 10 16 5 3 17 30
26 60 8 30 20 57 25 60 5 4 9 12 9 18 0 7 -12 -1 -26 -18 -33 -39 -23 -19 41
80 29 44 58 90 64 103 12 23 12 23 -13 7 -60 -40 -8 39 57 86 35 25 37 29 17
29 -19 0 -15 7 30 49 50 47 51 49 29 57 -20 6 -15 9 36 21 33 8 72 15 88 15
16 1 27 6 27 15 0 8 -4 11 -10 8 -5 -3 -10 -1 -10 4 0 6 13 11 29 11 17 0 32
4 36 10 3 5 11 7 18 5 37 -11 68 -15 63 -7 -3 5 3 15 12 23 15 13 24 13 70 -1
29 -9 49 -19 46 -23 -4 -4 -2 -7 4 -7 7 0 12 -7 12 -16 0 -8 5 -12 11 -8 19
11 89 11 105 -1 13 -9 12 -13 -10 -25 -14 -7 -26 -19 -26 -27 0 -7 -7 -13 -16
-13 -8 0 -12 -5 -9 -10 4 -6 10 -8 15 -5 5 3 20 -5 33 -19 16 -16 41 -26 76
-31 28 -4 57 -12 64 -18 7 -7 34 -23 59 -36 26 -13 67 -38 90 -55 l43 -31 -35
-6 -35 -6 40 -2 c34 -1 49 -10 99 -56 32 -30 63 -56 70 -58 6 -3 -23 -4 -64
-3 -41 1 -100 -1 -130 -5 -52 -5 -50 -6 30 -8 181 -6 192 -8 222 -43 15 -18
28 -37 28 -41 0 -12 58 -60 89 -73 21 -10 6 -12 -88 -13 -169 -2 -223 -33
-234 -132 -2 -19 -15 -52 -29 -74 -37 -60 -38 -67 -17 -141 11 -39 21 -118 24
-182 3 -62 12 -145 20 -184 18 -85 12 -122 -24 -154 -21 -20 -22 -23 -6 -17
20 6 20 6 0 -16 -33 -38 -52 -44 -87 -27 -17 9 -40 16 -51 16 -26 0 -89 39
-82 51 10 15 -18 36 -42 31 -35 -7 -48 -28 -35 -57 14 -30 3 -32 -39 -8 -51
30 -51 85 -2 144 l28 34 -30 -22 c-48 -35 -197 -191 -187 -197 5 -3 35 22 67
54 33 33 63 60 67 60 4 0 8 -11 8 -24 0 -29 52 -76 83 -76 20 0 20 0 -3 -24
-19 -21 -25 -23 -36 -11 -11 11 -21 11 -44 3 -36 -12 -40 -21 -5 -12 24 6 25
4 25 -38 0 -58 13 -70 56 -52 63 26 72 17 24 -25 -26 -22 -41 -43 -36 -47 5
-5 11 -3 13 4 3 6 10 12 16 12 6 0 19 8 29 17 18 16 18 16 12 0 -3 -9 -10 -17
-15 -17 -5 0 -8 -3 -8 -7 4 -23 -4 -30 -31 -28 -28 2 -35 -6 -30 -30 1 -5 -7
-2 -17 8 -15 13 -22 14 -32 4 -10 -9 -12 -9 -9 3 2 10 -5 15 -22 15 -14 0 -28
6 -31 14 -4 10 -16 -5 -34 -42 -16 -31 -32 -54 -37 -51 -4 3 -8 -2 -8 -10 0
-9 -7 -16 -16 -16 -11 0 -14 6 -9 21 5 15 4 19 -4 15 -15 -10 -14 27 2 43 10
11 9 13 -3 9 -24 -7 -38 16 -34 58 l4 39 -23 -29 c-57 -75 -67 -81 -33 -19 19
34 33 63 33 65 -1 2 0 2 2 0 2 -1 11 4 20 11 9 7 28 18 43 25 27 11 27 11 21
-18 -7 -38 2 -38 22 0 9 17 22 30 30 30 7 0 17 5 20 10 4 7 -13 8 -50 4 -57
-7 -57 -7 -45 16 9 16 9 25 1 33 -8 8 -11 8 -11 -1 0 -7 -7 -12 -15 -12 -8 0
-19 -9 -25 -19 -6 -12 -17 -17 -29 -14 -14 3 -21 -2 -26 -18 -5 -14 -3 -25 3
-27 6 -2 2 -18 -9 -40 -10 -20 -21 -45 -23 -55 -3 -10 -32 -29 -63 -43 -72
-32 -71 -31 -45 -50 28 -19 28 -32 0 -36 -36 -6 47 -28 104 -28 50 0 74 -16
36 -23 -17 -3 -15 -5 9 -6 62 -2 65 -8 35 -60 -15 -26 -39 -63 -55 -82 l-27
-34 14 43 c19 53 16 53 -71 8 -43 -22 -46 -21 -40 20 5 28 3 35 -8 31 -10 -5
-11 1 -5 24 l9 29 -30 -20 c-24 -18 -28 -18 -22 -4 5 14 3 15 -15 5 -25 -14
-28 -3 -7 25 23 31 17 37 -14 15 -37 -26 -37 -26 -45 5 -6 22 -9 24 -22 13
-11 -9 -9 -1 6 25 11 21 19 40 17 42 -2 3 -23 -16 -46 -41 -23 -25 -44 -45
-48 -45 -3 0 -37 -27 -74 -60 -37 -33 -70 -60 -73 -60 -4 0 5 18 19 40 l25 40
-25 6 c-15 4 -22 10 -18 18 4 6 8 23 8 39 0 24 -1 25 -12 10 -7 -9 -13 -11
-13 -5 0 7 -3 12 -7 12 -12 0 -86 -110 -79 -117 3 -4 6 -2 6 3 0 5 6 -2 13
-16 14 -27 2 -77 -29 -126 -9 -13 -12 -24 -6 -24 6 0 14 5 17 10 10 15 28 12
22 -4 -3 -8 -2 -16 3 -18 5 -2 12 -19 14 -38 3 -19 5 -37 5 -39 1 -2 15 11 33
28 17 17 35 31 39 31 4 0 10 11 13 24 8 31 54 60 91 58 28 -3 29 -2 13 14 -13
14 -22 15 -47 6 -18 -6 -31 -7 -31 -2 0 11 65 72 77 72 4 0 16 6 25 15 16 14
17 13 13 -17 -5 -42 16 -66 45 -50 27 15 45 3 28 -18 -11 -13 -10 -15 10 -10
29 8 29 -8 0 -23 -15 -8 -19 -14 -10 -17 10 -3 8 -10 -8 -27 -14 -15 -23 -40
-26 -69 -4 -50 6 -57 40 -31 11 8 27 15 37 15 9 0 19 7 23 15 6 17 36 21 36 4
0 -5 6 -7 13 -3 6 3 -1 -5 -18 -19 -25 -22 -26 -25 -9 -21 12 3 25 1 28 -5 4
-6 0 -11 -8 -11 -9 0 -39 -22 -67 -50 -28 -27 -55 -48 -59 -45 -15 9 -56 -13
-73 -38 -9 -14 -19 -40 -22 -59 -9 -51 -21 -53 -18 -3 2 38 0 45 -16 45 -22 0
-45 -25 -62 -65 -12 -28 -13 -29 -17 -7 -4 28 15 91 36 115 14 15 13 17 -1 17
-9 0 -19 -5 -22 -10 -4 -6 -11 -7 -17 -4 -7 4 -8 2 -4 -4 4 -7 3 -12 -3 -12
-5 0 -23 -24 -40 -52 -34 -59 -43 -40 -11 23 26 50 41 89 34 89 -2 0 -22 -28
-44 -62 l-39 -62 5 59 c3 33 7 68 9 78 4 23 -8 22 -30 -3 -10 -11 -18 -34 -18
-51 0 -16 -3 -25 -7 -19 -6 9 -95 -98 -126 -150 -7 -12 -15 -16 -24 -10 -11 7
-12 11 0 24 27 34 3 21 -34 -17 -22 -22 -32 -37 -22 -34 10 4 29 10 42 13 23
6 24 5 14 -22 -6 -16 -13 -36 -17 -44 -3 -8 -7 -19 -7 -25 -1 -5 -24 -10 -51
-11 -55 0 -83 -12 -133 -55 -21 -19 -44 -29 -65 -29 -18 -1 -57 -7 -88 -14
-34 -8 -62 -10 -70 -5 -39 25 -24 3 28 -38 67 -54 137 -130 110 -120 -10 4
-17 2 -17 -5 0 -6 -11 -1 -24 12 -14 12 -32 20 -40 17 -8 -3 -16 -2 -18 2 -4
9 -99 75 -113 78 -5 1 -21 5 -35 9 -23 6 -24 5 -7 -8 16 -12 14 -13 -24 -10
-44 5 -67 -12 -89 -65 -5 -13 -13 -23 -18 -23 -15 0 -73 60 -68 69 17 27 -112
88 -197 94 -86 6 -76 -5 24 -25 88 -19 149 -42 149 -58 0 -7 -8 -9 -20 -5 -27
9 -26 3 15 -55 19 -27 35 -52 35 -55 0 -3 -33 12 -72 32 -94 48 -108 54 -108
44 0 -5 12 -12 27 -16 19 -4 23 -9 14 -14 -11 -7 -11 -10 0 -14 8 -3 4 -6 -10
-6 -17 -1 -22 3 -17 14 3 8 1 15 -3 15 -5 0 -11 -7 -15 -15 -8 -23 -28 -18
-21 5 5 15 0 21 -19 26 -14 3 -26 10 -26 15 0 5 -5 9 -11 9 -5 0 -8 -4 -5 -9
3 -4 -5 -7 -17 -6 -32 4 -34 6 -12 15 13 6 15 9 5 9 -8 0 -19 -3 -25 -7 -34
-25 -35 -45 -35 -687 l0 -635 1831 0 1831 0 -23 38 c-13 20 -29 47 -37 60 -12
18 -12 27 -2 52 10 25 18 30 47 30 19 0 44 5 55 11 43 23 120 13 189 -25 35
-19 77 -37 93 -40 30 -5 32 -6 115 -79 l53 -47 424 0 424 0 0 509 0 509 -32
24 c-50 37 -116 73 -188 103 -74 30 -306 95 -443 124 -284 59 -440 96 -507
120 -41 14 -83 25 -93 24 -16 -3 -77 22 -77 30 0 2 9 21 21 43 11 21 18 31 15
21 -3 -9 -3 -24 0 -32 11 -28 24 -4 24 42 0 44 1 45 18 30 30 -28 47 -19 19 9
-37 37 -51 84 -38 131 15 54 13 161 -5 208 -8 22 -19 67 -24 100 -19 132 -39
231 -50 260 -7 17 -15 58 -19 93 -8 69 -1 75 53 47 16 -9 33 -12 38 -7 5 5 -3
14 -17 22 -14 7 -25 17 -25 22 0 11 7 10 41 -8 39 -20 49 -11 15 11 -14 10
-26 23 -26 29 0 15 -49 68 -84 91 -31 21 -32 33 -1 144 10 38 15 83 12 107 -6
55 -40 122 -79 155 l-31 26 13 98 c14 108 10 255 -15 515 -19 196 -19 195 -65
248 -44 49 -80 117 -80 150 0 12 -18 39 -40 61 -22 22 -40 45 -40 52 0 6 -8
18 -17 26 -10 8 -12 11 -4 7 10 -5 11 -1 6 17 -18 58 -27 71 -60 90 -19 11
-51 43 -71 70 -25 34 -54 59 -93 78 -31 16 -67 41 -81 56 -14 15 -54 42 -90
60 -37 18 -84 49 -107 67 -55 47 -189 92 -268 91 -45 -1 -69 4 -100 22 -39 22
-115 41 -126 31z m-262 -54 c-10 -10 -17 -24 -17 -30 0 -7 -4 -12 -10 -12 -5
0 -10 3 -10 8 0 14 31 52 42 52 6 0 4 -8 -5 -18z m10 -46 c-6 -16 16 -28 37
-20 8 3 24 1 35 -6 23 -12 28 -54 11 -80 -9 -13 -12 -13 -24 3 -7 9 -18 17
-24 17 -7 0 -14 11 -18 25 -6 25 -7 25 -25 9 -14 -13 -19 -32 -20 -73 l-1 -56
-12 45 -13 45 -19 -38 c-18 -37 -19 -37 -27 -15 -9 22 -9 22 -17 3 -5 -11 -9
-39 -9 -63 -1 -26 -5 -41 -11 -37 -5 3 -10 39 -10 79 0 61 4 78 27 113 24 37
73 65 73 41 0 -5 10 -2 22 6 28 20 32 20 25 2z m160 -99 l15 -30 -31 22 c-17
13 -31 31 -31 43 0 17 2 19 16 7 8 -7 22 -26 31 -42z m60 8 c25 -43 -14 -41
-42 2 -16 24 -16 24 7 21 13 -2 28 -12 35 -23z m-16 -216 c6 -13 7 -19 1 -15
-6 3 -12 3 -15 -1 -2 -5 -2 -2 -1 5 2 6 -1 12 -7 12 -6 0 -7 5 -4 10 9 14 13
13 26 -11z m-136 -19 c3 -5 2 -10 -4 -10 -5 0 -13 5 -16 10 -3 6 -2 10 4 10 5
0 13 -4 16 -10z m63 -40 c11 0 24 -5 27 -10 4 -7 -2 -9 -19 -4 -18 4 -26 2
-26 -7 0 -9 -8 -6 -21 8 -13 13 -18 26 -14 34 6 9 11 8 20 -4 7 -10 22 -17 33
-17z m-191 -26 c-3 -3 -12 -4 -19 -1 -8 3 -5 6 6 6 11 1 17 -2 13 -5z m1272
-28 c-3 -3 -11 5 -18 17 -13 21 -12 21 5 5 10 -10 16 -20 13 -22z m-1727 -204
c-98 -102 -161 -198 -141 -216 9 -8 10 -7 4 4 -6 11 -5 12 3 5 12 -11 0 -43
-52 -144 -32 -63 -46 -64 -46 -1 0 71 56 211 120 299 46 63 113 123 160 142
48 21 35 -5 -48 -89z m908 28 c0 -5 -4 -10 -10 -10 -5 0 -10 5 -10 10 0 6 5
10 10 10 6 0 10 -4 10 -10z m70 0 c0 -5 -12 -10 -26 -10 -14 0 -23 4 -19 10 3
6 15 10 26 10 10 0 19 -4 19 -10z m237 -16 c-3 -3 -12 -4 -19 -1 -8 3 -5 6 6
6 11 1 17 -2 13 -5z m-1262 -123 c-3 -6 -16 -16 -28 -22 -21 -11 -21 -10 2 15
23 25 40 29 26 7z m-69 -253 c-49 -77 -82 -148 -90 -190 -4 -21 -5 -38 -2 -38
3 0 15 18 27 40 22 39 49 60 49 38 0 -6 -12 -32 -27 -57 l-27 -46 33 28 c56
47 65 36 22 -26 -37 -55 -79 -139 -102 -204 -18 -54 -16 -67 6 -36 8 11 18 14
31 9 18 -7 18 -8 2 -20 -9 -7 -16 -19 -16 -27 4 -60 -4 -130 -13 -127 -18 6
-69 132 -57 139 8 5 6 15 -5 32 -13 20 -16 52 -17 154 0 70 5 148 10 173 6 25
17 72 24 105 l14 60 0 -70 c0 -38 -7 -96 -15 -128 -20 -78 -10 -97 11 -22 10
33 22 74 27 91 12 37 83 136 92 127 4 -3 16 6 28 20 33 43 31 31 -5 -25z
m1805 -135 c13 -16 12 -17 -3 -4 -17 13 -22 21 -14 21 2 0 10 -8 17 -17z
m-246 -33 c-3 -5 -12 -10 -18 -10 -7 0 -6 4 3 10 19 12 23 12 15 0z m-330 -30
c-3 -5 -11 -10 -16 -10 -6 0 -7 5 -4 10 3 6 11 10 16 10 6 0 7 -4 4 -10z m292
-16 c-3 -3 -12 -4 -19 -1 -8 3 -5 6 6 6 11 1 17 -2 13 -5z m-2 -26 c50 -13 75
-44 27 -34 -15 3 -55 7 -89 8 -67 3 -76 9 -40 26 29 14 48 14 102 0z m48 -57
c14 -6 -13 -8 -70 -6 -51 2 -106 0 -123 -5 -37 -11 -38 -5 -2 15 21 12 44 14
100 10 40 -3 83 -10 95 -14z m47 -12 c0 -5 -4 -9 -10 -9 -5 0 -10 7 -10 16 0
8 5 12 10 9 6 -3 10 -10 10 -16z m-330 -52 c0 -7 -7 -22 -15 -33 -15 -23 -9
-40 9 -24 7 5 27 5 49 0 21 -4 39 -4 43 1 3 5 18 9 34 9 20 0 31 6 35 20 9 28
28 25 42 -6 11 -25 11 -26 -13 -20 -17 5 -26 2 -30 -9 -3 -8 -10 -13 -14 -10
-4 3 -13 -2 -20 -10 -11 -13 -10 -14 2 -10 28 11 28 -23 1 -45 -31 -24 -37
-25 -57 -4 -9 8 -16 12 -16 8 0 -3 -7 -1 -15 6 -8 7 -15 9 -15 4 0 -11 -52 44
-74 78 -15 23 -16 29 -4 42 16 19 58 21 58 3z m128 -33 c-4 -3 -16 -3 -28 1
-17 5 -19 9 -9 21 11 13 14 13 28 0 8 -9 12 -18 9 -22z m158 20 c-3 -8 -2 -12
4 -9 5 3 19 -3 31 -14 l21 -19 -46 -7 c-26 -4 -49 -5 -52 -2 -8 7 28 67 39 67
5 0 6 -7 3 -16z m324 -36 c11 -12 20 -28 20 -35 0 -7 5 -13 10 -13 6 0 10 -8
10 -18 0 -10 5 -23 12 -30 9 -9 9 -12 0 -12 -7 0 -12 5 -12 11 0 8 -5 8 -15
-1 -8 -7 -15 -9 -15 -5 0 4 -7 2 -15 -5 -8 -6 -19 -9 -25 -5 -13 8 -13 35 0
35 6 0 10 5 10 10 0 6 -7 10 -15 10 -22 0 -28 22 -16 53 13 33 24 34 51 5z
m-1950 -2 c0 -3 -4 -8 -10 -11 -5 -3 -10 -1 -10 4 0 6 5 11 10 11 6 0 10 -2
10 -4z m1393 -97 c31 -16 77 -61 72 -70 -3 -4 -20 -2 -39 3 -23 7 -39 21 -50
44 -17 37 -15 40 17 23z m131 -4 c-7 -17 -20 -20 -28 -6 -7 10 3 21 20 21 8 0
11 -6 8 -15z m-62 -78 c15 0 29 -6 32 -13 3 -8 10 -14 16 -14 6 0 8 4 5 10
-11 17 28 -1 68 -32 35 -27 40 -29 55 -15 15 13 21 13 42 2 19 -10 28 -11 39
-2 12 9 13 9 7 0 -4 -7 -2 -13 3 -13 6 0 11 -5 11 -11 0 -8 -4 -9 -13 0 -21
16 -29 0 -11 -20 22 -24 11 -51 -42 -104 -45 -46 -52 -48 -33 -14 10 19 9 19
-10 9 -12 -6 -21 -15 -21 -20 0 -6 -5 -10 -11 -10 -7 0 -9 10 -5 26 7 25 6 26
-34 19 -33 -6 -45 -3 -69 17 -16 12 -48 36 -71 52 -36 25 -40 32 -35 56 4 16
7 43 7 60 1 27 4 31 22 24 12 -3 33 -7 48 -7z m475 -19 c32 -36 35 -47 13 -41
-11 3 -20 9 -20 13 0 4 -9 10 -20 13 -11 3 -18 1 -15 -3 8 -13 -18 -18 -40 -7
-19 10 -19 9 -2 -17 15 -22 15 -26 2 -26 -8 0 -15 6 -15 14 0 8 -5 16 -12 18
-6 2 -13 15 -15 29 -2 13 0 20 4 14 11 -14 40 -12 55 3 18 18 42 15 65 -10z
m-297 -22 c0 -3 -4 -8 -10 -11 -5 -3 -10 -1 -10 4 0 6 5 11 10 11 6 0 10 -2
10 -4z m-1720 -31 c26 -14 27 -17 19 -52 -5 -21 -13 -83 -19 -138 -6 -55 -13
-113 -15 -130 -3 -16 -5 -55 -5 -86 0 -31 -6 -63 -14 -74 -13 -18 -15 -17 -34
21 -34 66 -62 173 -62 233 1 82 29 189 58 224 18 21 34 21 72 2z m1940 -35 c0
-5 -4 -10 -10 -10 -5 0 -10 5 -10 10 0 6 5 10 10 10 6 0 10 -4 10 -10z m25 0
c3 -5 1 -10 -4 -10 -6 0 -11 5 -11 10 0 6 2 10 4 10 3 0 8 -4 11 -10z m-544
-85 c5 4 9 -3 9 -14 0 -12 -5 -21 -11 -21 -5 0 -7 5 -3 11 4 7 0 9 -14 5 -14
-5 -21 -1 -25 13 -3 14 -1 18 9 14 8 -3 15 1 15 8 1 8 3 6 6 -4 2 -9 9 -15 14
-12z m41 -77 c-7 -7 -12 -8 -12 -2 0 6 3 14 7 17 3 4 9 5 12 2 2 -3 -1 -11 -7
-17z m176 -100 l45 -46 -44 5 c-24 3 -52 10 -61 14 -10 6 -19 5 -23 -1 -4 -6
-11 -8 -16 -4 -5 3 -7 10 -3 15 3 5 0 17 -7 25 -6 8 -9 17 -5 21 3 3 6 1 6 -6
0 -7 4 -10 9 -6 6 3 8 24 7 46 l-3 41 25 -29 c14 -15 45 -49 70 -75z m146 36
c9 -24 7 -27 -9 -10 -17 17 -19 26 -6 26 5 0 12 -7 15 -16z m230 1 c-4 -8 -8
-15 -10 -15 -2 0 -4 7 -4 15 0 8 4 15 10 15 5 0 7 -7 4 -15z m-933 -35 c18 0
35 -17 26 -27 -8 -7 -67 29 -67 41 0 6 5 5 12 -2 7 -7 20 -12 29 -12z m754
-10 c10 -11 14 -20 9 -20 -5 0 -15 9 -22 20 -7 11 -11 20 -9 20 2 0 12 -9 22
-20z m-1710 -79 c-22 -44 -26 -38 -7 10 9 23 18 37 20 31 2 -6 -4 -24 -13 -41z
m-35 35 c0 -3 -4 -8 -10 -11 -5 -3 -10 -1 -10 4 0 6 5 11 10 11 6 0 10 -2 10
-4z m1232 -109 c9 -17 7 -17 -14 -6 -26 14 -38 28 -38 48 0 17 36 -13 52 -42z
m523 35 c-3 -3 0 -11 6 -19 17 -20 5 -16 -14 5 -15 16 -15 19 -2 19 8 0 13 -3
10 -5z m155 -62 c-18 -12 -50 -13 -50 -2 0 4 15 9 33 10 24 2 28 0 17 -8z
m-1000 -64 c0 -3 -4 -8 -10 -11 -5 -3 -10 -1 -10 4 0 6 5 11 10 11 6 0 10 -2
10 -4z m148 -26 c10 -17 10 -20 -6 -20 -24 0 -32 8 -25 26 7 19 16 18 31 -6z
m123 2 c-5 -9 -19 -26 -32 -37 -12 -11 -19 -15 -16 -8 4 6 1 13 -5 16 -8 2 -1
10 15 17 15 7 27 17 27 22 0 4 5 8 10 8 7 0 7 -6 1 -18z m119 -17 c79 -27 147
-65 118 -65 -10 0 -18 -5 -18 -11 0 -6 -6 -17 -14 -24 -12 -12 -16 -11 -30 10
-17 26 -15 28 19 26 19 -1 -32 27 -125 68 -62 28 -38 26 50 -4z m-282 -17 c4
-18 -59 -58 -91 -58 -19 1 -16 6 22 41 45 40 64 45 69 17z m-409 -33 c-2 -2
-22 -6 -44 -10 l-40 -6 40 19 c22 10 42 15 44 10 1 -5 1 -11 0 -13z m-785 -9
c-10 -8 -21 -12 -24 -10 -5 6 21 24 34 24 6 0 1 -6 -10 -14z m1456 1 c0 -5 4
-5 10 -2 5 3 18 1 27 -5 17 -10 16 -10 -2 -8 -14 2 -25 -7 -39 -31 -18 -34
-18 -35 0 -49 17 -13 17 -14 2 -9 -10 4 -18 3 -18 -1 0 -4 -31 -8 -70 -7 -38
0 -71 -4 -73 -8 -1 -4 -18 -13 -38 -20 -19 -7 -35 -16 -36 -22 -1 -5 -10 -12
-20 -16 -17 -7 -17 -8 0 -8 13 -1 17 -6 13 -18 -3 -10 -8 -36 -12 -58 -3 -22
-13 -51 -21 -63 -28 -44 -4 -34 28 12 33 46 54 61 42 29 -4 -10 -2 -14 5 -9 6
3 16 -2 22 -11 8 -13 10 -14 9 -3 -1 8 -1 22 0 30 1 12 3 13 10 1 7 -11 10 -9
15 7 6 19 9 18 47 -17 48 -42 64 -45 65 -11 2 54 3 54 23 36 11 -10 24 -15 30
-12 5 4 30 -5 55 -19 55 -31 65 -32 40 -3 l-19 22 27 -20 c15 -10 28 -23 28
-27 0 -5 4 -6 9 -3 5 3 22 -9 38 -27 16 -18 38 -37 49 -41 10 -5 14 -10 8 -12
-6 -3 -8 -18 -6 -34 6 -43 -13 -38 -64 18 -29 31 -44 41 -44 30 0 -9 4 -18 9
-20 5 -1 7 -16 4 -31 l-6 -28 -18 28 -19 28 6 -47 c6 -41 4 -46 -12 -45 -11 1
-22 7 -26 12 -5 6 -8 4 -8 -4 0 -8 -14 4 -31 27 -36 49 -48 53 -41 15 5 -25 3
-26 -11 -15 -8 7 -18 31 -22 53 -4 21 -11 39 -16 39 -6 0 -7 5 -3 12 4 7 3 8
-4 4 -7 -4 -12 -26 -13 -49 0 -31 -2 -37 -8 -22 -7 18 -10 16 -26 -15 -23 -45
-65 -95 -65 -78 -1 8 -8 4 -19 -9 -22 -27 -31 -29 -31 -8 0 26 -19 17 -27 -12
l-7 -28 -6 25 -7 25 -13 -27 c-14 -30 -37 -39 -25 -10 14 34 23 72 18 72 -3 0
-12 -8 -19 -17 -9 -12 -13 -14 -14 -5 0 7 -5 10 -10 7 -7 -4 -9 2 -4 19 8 34
-1 33 -21 -1 -14 -25 -15 -25 -9 -4 4 17 3 21 -6 16 -9 -6 -9 -3 -1 14 7 11
17 20 23 18 6 -1 13 4 16 12 3 8 0 11 -7 7 -14 -9 -14 -5 -1 29 9 24 8 25 -11
15 -11 -6 -33 -31 -48 -56 l-28 -44 -6 37 c-7 38 18 97 32 76 7 -12 45 0 55
16 5 7 1 8 -10 4 -12 -4 -15 -3 -10 5 11 18 -13 14 -42 -7 -15 -10 -37 -23
-49 -30 -20 -10 -22 -9 -16 5 5 14 2 16 -20 10 -21 -5 -25 -3 -21 9 8 21 -29
15 -55 -9 -12 -11 -21 -14 -26 -7 -3 6 -2 11 4 11 6 0 15 10 22 21 13 25 -1
20 -38 -13 l-21 -20 9 39 c11 48 3 79 -16 63 -12 -10 -12 -6 -5 22 13 43 13
43 -7 27 -14 -13 -14 -11 1 19 21 40 14 52 -14 27 -23 -21 -26 -9 -5 19 17 23
20 50 4 40 -8 -4 -8 -1 -1 12 5 11 8 26 7 34 -2 10 6 15 24 16 66 3 109 10
104 17 -2 4 0 7 6 7 5 0 16 7 25 15 14 14 19 14 52 0 43 -18 82 -19 121 -4 15
7 62 13 103 14 62 1 128 10 136 18 7 6 84 1 84 -6z m553 -13 c-3 -9 -9 -12
-12 -7 -3 4 -10 11 -15 16 -5 4 0 7 12 7 15 0 20 -4 15 -16z m-70 -32 c21 -21
34 -41 31 -45 -4 -4 1 -16 10 -26 17 -19 17 -19 -3 -14 -12 3 -27 13 -34 23
-7 9 -24 25 -40 35 -22 14 -25 20 -15 32 9 11 9 16 -3 24 -12 7 -12 9 1 9 9 0
33 -17 53 -38z m-418 8 c3 -5 1 -10 -4 -10 -6 0 -11 5 -11 10 0 6 2 10 4 10 3
0 8 -4 11 -10z m5 -70 c0 -5 -10 -10 -22 -10 -19 0 -20 2 -8 10 19 13 30 13
30 0z m268 -2 c0 -7 3 -23 6 -35 2 -13 2 -23 -1 -23 -13 0 -30 35 -25 52 5 21
18 24 20 6z m-1505 -53 c-3 -9 -8 -14 -10 -11 -3 3 -2 9 2 15 9 16 15 13 8 -4z
m972 -5 c-3 -5 -11 -10 -16 -10 -6 0 -7 5 -4 10 3 6 11 10 16 10 6 0 7 -4 4
-10z m535 -30 c14 -26 4 -46 -15 -30 -7 6 -11 20 -8 30 7 25 10 25 23 0z m9
-67 c-7 -10 -14 -20 -16 -22 -1 -2 -1 6 0 18 1 11 8 21 15 21 12 0 12 -3 1
-17z m-39 -39 c0 -3 -7 -1 -16 4 -9 5 -26 8 -38 5 -20 -3 -20 -3 -1 6 18 8 55
-2 55 -15z m-1600 -15 c-7 -11 -14 -18 -17 -15 -3 3 0 12 7 21 18 21 23 19 10
-6z m1546 -20 c3 -6 -5 -3 -20 6 -14 10 -26 19 -26 22 0 7 39 -17 46 -28z
m109 21 c3 -5 1 -10 -4 -10 -6 0 -11 5 -11 10 0 6 2 10 4 10 3 0 8 -4 11 -10z
m693 -230 c-3 -41 -10 -66 -22 -78 -18 -16 -18 -15 -12 38 12 99 18 122 29
111 5 -5 8 -37 5 -71z m-1446 -12 c-4 -18 -2 -20 16 -16 29 8 29 -23 2 -88
-23 -52 -21 -67 3 -30 20 30 106 101 113 93 3 -3 -11 -36 -32 -74 -85 -154
-92 -178 -78 -260 l8 -48 7 60 c11 84 11 84 49 161 l34 69 14 -35 15 -35 21
57 c22 58 46 95 46 70 0 -25 18 -11 25 21 l8 32 10 -47 c6 -27 14 -48 18 -48
4 0 17 29 29 66 21 63 47 83 43 33 -1 -13 -4 -58 -6 -100 -7 -103 6 -157 46
-191 18 -15 26 -28 20 -28 -26 0 -12 -27 42 -80 30 -30 55 -50 55 -46 0 5 -20
43 -44 85 -29 50 -47 93 -51 126 l-6 50 15 -32 c8 -18 40 -67 71 -109 41 -55
61 -74 72 -70 10 4 26 -3 40 -15 12 -13 23 -18 23 -12 0 6 -18 27 -40 47 -22
20 -38 36 -36 36 11 0 96 -62 125 -92 17 -17 31 -30 31 -27 0 2 -7 29 -15 59
-9 30 -18 73 -21 95 -5 38 -3 37 31 -30 l35 -70 -6 65 c-3 36 -10 81 -15 100
-11 45 -11 53 1 45 6 -3 10 -16 10 -28 0 -18 2 -19 10 -7 8 13 10 13 10 -2 0
-9 4 -18 9 -20 5 -1 20 -21 35 -42 20 -29 26 -34 26 -19 0 11 -9 28 -20 38
-11 10 -20 29 -20 42 0 13 -4 33 -10 43 -7 13 -6 19 4 23 8 3 17 -1 20 -9 4
-10 2 -12 -6 -8 -7 4 -8 3 -4 -5 6 -9 11 -9 21 -1 11 9 16 6 26 -12 8 -14 14
-18 17 -10 7 21 19 13 26 -18 3 -16 10 -30 15 -30 6 0 4 18 -4 41 -18 51 -19
62 -2 53 8 -5 8 -3 -2 9 -7 9 -17 15 -21 12 -5 -3 -12 0 -16 6 -4 8 -3 9 4 5
8 -4 12 0 13 11 0 29 30 -19 55 -92 28 -81 38 -153 25 -188 -6 -16 -7 -27 -1
-27 5 0 7 -7 4 -15 -9 -21 -24 -8 -24 20 0 13 -5 27 -10 30 -7 4 -8 -12 -5
-47 5 -47 4 -51 -8 -35 -20 25 -24 22 -23 -20 0 -61 -15 -113 -31 -113 -9 0
-13 -6 -10 -14 3 -8 2 -27 -3 -43 -7 -23 -8 -18 -9 30 -1 60 -14 79 -18 25 -1
-17 -6 -34 -11 -37 -4 -3 -9 -21 -10 -40 -1 -18 -7 -41 -13 -50 -8 -12 -9 -6
-5 24 10 71 -35 125 -53 63 l-9 -33 -1 40 c-2 71 -17 71 -29 -1 -8 -48 -19
-77 -40 -102 -35 -45 -58 -54 -46 -21 13 36 9 120 -8 151 -8 15 -18 25 -21 21
-4 -3 -3 -11 3 -17 5 -8 5 -28 -2 -56 -11 -47 -28 -76 -28 -49 0 26 -48 117
-78 146 -16 15 -47 44 -70 63 -23 19 -42 43 -42 54 0 13 -5 16 -17 12 -10 -4
-14 -4 -11 -1 6 6 -29 85 -37 85 -1 0 0 -11 2 -24 4 -21 2 -24 -15 -19 -11 3
-23 12 -27 21 -5 14 -7 14 -16 2 -8 -12 -9 -11 -5 5 3 11 -1 33 -9 49 -8 15
-15 42 -16 60 0 29 -1 30 -10 8 -5 -13 -7 -28 -4 -32 3 -5 7 -40 9 -79 3 -54
10 -82 34 -125 16 -31 27 -58 23 -60 -4 -3 -28 16 -54 41 -79 76 -65 40 17
-43 42 -43 76 -82 76 -87 0 -6 -10 2 -23 16 -25 29 -42 34 -50 15 -4 -8 -6 -7
-6 3 -1 9 -8 20 -17 23 -13 5 -15 0 -10 -36 l6 -43 -17 41 c-10 23 -23 48 -29
55 -6 8 -14 23 -18 33 -3 10 -8 17 -11 15 -2 -3 2 -23 10 -44 8 -25 9 -42 3
-46 -5 -3 -6 -18 -2 -32 8 -36 -2 -34 -21 4 -10 19 -22 29 -30 25 -8 -3 -18 0
-22 7 -14 23 -19 -38 -7 -90 12 -51 9 -93 -5 -93 -4 0 -15 25 -26 56 -11 31
-21 51 -23 44 -3 -9 -6 -9 -13 1 -6 9 -9 -2 -9 -31 0 -25 -3 -55 -6 -67 -11
-39 -29 -26 -31 21 -1 24 -9 61 -18 83 -19 44 -77 132 -87 133 -17 0 -6 -36
36 -113 24 -45 47 -95 50 -112 l7 -30 -21 33 c-11 18 -20 37 -20 41 0 16 -61
71 -78 71 -18 0 -34 21 -65 85 -11 22 -28 50 -39 62 -11 12 -17 26 -13 32 3 6
1 11 -5 11 -6 0 -8 16 -5 43 l5 42 -15 -35 -15 -35 5 35 4 35 -17 -30 c-12
-22 -17 -54 -17 -122 0 -50 -3 -86 -8 -78 -14 27 -24 138 -15 174 6 20 11 45
13 56 3 26 27 78 40 87 5 4 6 8 1 8 -5 0 -1 9 9 20 10 11 15 20 11 20 -3 0 5
18 20 41 31 50 24 63 -12 20 -14 -17 -30 -29 -34 -26 -5 3 -12 0 -16 -6 -4 -8
-3 -9 4 -5 19 11 14 -9 -8 -37 -11 -14 -21 -33 -21 -44 -1 -14 -2 -14 -6 -2
-2 8 0 26 5 40 5 13 10 27 11 32 2 21 33 66 67 97 l38 35 -40 -50 -39 -50 40
33 c64 52 75 64 68 75 -4 6 3 8 17 4 24 -6 80 17 80 33 0 6 6 10 13 10 6 0 33
11 59 24 46 22 47 22 36 2 -6 -12 -28 -39 -49 -61 -60 -63 -113 -203 -95 -252
5 -12 16 8 35 64 16 45 54 123 85 174 32 50 62 102 67 115 11 30 19 31 11 2z
m-1008 -30 c-3 -18 -7 -49 -8 -68 -7 -81 -18 -140 -27 -140 -42 0 53 -201 134
-280 51 -51 60 -67 26 -49 -42 22 -110 93 -145 151 -20 33 -40 55 -43 49 -8
-13 -22 -3 -44 31 -16 25 -16 31 -3 63 8 19 20 35 26 35 7 0 10 6 7 13 -2 6 0
20 5 31 8 15 12 16 19 5 8 -12 11 -12 19 1 12 19 13 57 1 64 -5 4 -30 -17 -56
-46 -43 -47 -46 -49 -39 -22 9 38 14 45 24 39 5 -3 14 3 19 14 16 29 13 39 -4
17 -8 -11 -15 -17 -15 -13 0 18 87 135 102 136 4 1 5 -14 2 -31z m1510 -4 c3
-9 10 -12 16 -9 5 3 7 0 4 -8 -3 -8 -1 -18 5 -22 6 -3 11 -16 11 -27 0 -20 -2
-19 -27 6 -29 29 -54 72 -46 80 8 8 31 -4 37 -20z m952 -80 c-8 -21 -15 -31
-15 -22 -1 18 20 70 26 65 2 -2 -3 -21 -11 -43z m-31 -161 c-10 -40 -17 -20
-9 23 5 24 9 32 12 21 2 -10 1 -30 -3 -44z m-2630 -17 c21 -15 15 -43 -12 -53
-9 -4 -26 -16 -38 -28 -11 -11 -14 -13 -6 -3 12 15 12 18 0 18 -8 -1 -32 -29
-53 -64 -22 -36 -48 -75 -59 -88 l-19 -23 6 52 c5 57 40 133 79 176 29 30 71
36 102 13z m-205 -71 c0 -11 -54 -26 -69 -19 -14 5 -13 7 4 14 23 10 65 13 65
5z m1971 -32 c13 -16 12 -17 -3 -4 -17 13 -22 21 -14 21 2 0 10 -8 17 -17z
m-2689 -119 c-3 -19 -7 -22 -13 -12 -13 20 -11 38 5 38 9 0 12 -8 8 -26z m139
-1 c13 -16 12 -17 -3 -4 -17 13 -22 21 -14 21 2 0 10 -8 17 -17z m2309 -75 c0
-6 -9 -3 -19 6 -11 10 -24 16 -28 13 -5 -3 -9 3 -9 13 0 17 2 17 28 -2 15 -10
28 -24 28 -30z m140 -60 c15 -31 25 -59 22 -62 -3 -4 0 -6 6 -6 7 0 12 -9 12
-21 0 -35 -30 -126 -45 -139 -12 -10 -12 -6 1 26 24 57 14 150 -23 224 -16 33
-23 54 -15 48 8 -7 27 -38 42 -70z m-170 25 c0 -13 -3 -13 -15 -3 -8 7 -15 19
-15 27 0 13 3 13 15 3 8 -7 15 -19 15 -27z m78 -38 c-3 -3 -13 7 -23 22 l-17
28 23 -22 c12 -12 20 -25 17 -28z m-654 -61 c9 -24 7 -28 -9 -14 -17 14 -20
30 -6 30 5 0 12 -7 15 -16z m966 -43 c-12 -28 -28 -55 -35 -61 -7 -6 1 18 18
53 38 76 48 81 17 8z m71 -34 c-10 -9 -11 -8 -5 6 3 10 9 15 12 12 3 -3 0 -11
-7 -18z m-881 -232 c0 -7 -7 -19 -17 -26 -15 -13 -15 -12 -4 9 11 21 10 22
-32 22 -49 0 -62 7 -46 26 8 10 19 9 55 -3 24 -8 44 -21 44 -28z m-90 -17 c0
-3 -9 -6 -20 -5 -11 1 -20 5 -20 9 0 3 9 6 20 5 11 -1 20 -5 20 -9z m190 -58
c0 -11 -7 -23 -15 -27 -20 -7 -29 2 -20 17 6 9 10 9 16 -1 6 -10 9 -8 9 9 0
12 2 22 5 22 3 0 5 -9 5 -20z m-42 -2 c-3 -7 -12 -14 -22 -14 -15 -2 -15 -2 0
3 14 4 14 7 3 14 -11 7 -10 9 4 9 11 0 17 -6 15 -12z m-654 -227 l38 -39 -8
-92 c-7 -91 -7 -92 14 -81 12 6 27 20 35 32 9 13 17 16 22 10 3 -6 14 -15 25
-21 15 -8 17 -7 13 12 -4 14 -2 19 8 16 29 -10 54 -191 27 -200 -15 -5 -107
16 -135 30 -11 6 -23 8 -27 5 -3 -3 -6 -1 -6 6 0 7 -6 11 -14 8 -8 -3 -20 1
-26 8 -13 16 -34 10 -25 -6 4 -5 1 -9 -4 -9 -6 0 -11 7 -11 15 0 18 -17 20
-23 3 -6 -19 -50 7 -71 43 -9 16 -25 29 -35 29 -22 0 -48 28 -53 55 -2 17 4
21 39 25 24 3 52 13 63 23 11 9 25 17 31 17 6 0 8 7 5 16 -3 8 -2 12 4 9 12
-7 28 8 55 48 16 24 16 30 4 39 -11 7 -11 11 -1 15 6 2 10 9 6 14 -14 23 16 5
50 -30z"/>
<path d="M1240 3112 c0 -5 7 -15 15 -22 8 -7 15 -8 15 -2 0 5 -7 15 -15 22 -8
7 -15 8 -15 2z"/>
<path d="M2980 2964 c0 -13 65 -63 69 -52 2 5 -9 21 -25 34 -29 23 -44 29 -44
18z"/>
<path d="M2960 2935 c0 -3 9 -15 20 -27 11 -13 20 -16 20 -9 0 7 -6 19 -14 27
-15 14 -26 18 -26 9z"/>
<path d="M1197 2887 c-7 -12 -17 -38 -20 -57 -6 -34 -6 -34 10 -12 18 25 38
29 50 7 6 -9 8 -1 8 24 0 50 -26 71 -48 38z"/>
<path d="M1162 2770 c0 -14 2 -19 5 -12 2 6 2 18 0 25 -3 6 -5 1 -5 -13z"/>
<path d="M2120 2286 c0 -10 70 -47 80 -41 18 11 11 23 -17 29 -16 4 -36 9 -45
12 -10 3 -18 3 -18 0z"/>
<path d="M2056 2164 c-13 -33 -7 -45 14 -34 19 10 20 9 14 -16 -5 -19 -4 -25
5 -20 16 11 14 35 -8 62 -16 20 -20 21 -25 8z"/>
<path d="M1976 1468 c-10 -38 -6 -92 9 -118 12 -23 13 -17 8 55 -3 44 -7 81
-8 83 -1 1 -5 -8 -9 -20z"/>
<path d="M3131 1464 c0 -11 3 -14 6 -6 3 7 2 16 -1 19 -3 4 -6 -2 -5 -13z"/>
<path d="M3140 1429 c0 -5 5 -7 10 -4 6 3 10 8 10 11 0 2 -4 4 -10 4 -5 0 -10
-5 -10 -11z"/>
<path d="M2052 1360 c0 -19 2 -27 5 -17 2 9 2 25 0 35 -3 9 -5 1 -5 -18z"/>
<path d="M2252 1310 c3 -8 15 -48 28 -87 13 -40 26 -73 30 -73 8 0 -42 156
-54 167 -5 4 -7 2 -4 -7z"/>
<path d="M1650 4415 c-7 -8 -8 -15 -2 -15 5 0 15 7 22 15 7 8 8 15 2 15 -5 0
-15 -7 -22 -15z"/>
<path d="M2100 4144 c0 -7 12 -21 28 -32 l27 -20 2 28 c2 24 -2 29 -27 32 -20
3 -30 0 -30 -8z"/>
<path d="M2438 3893 c12 -2 32 -2 45 0 12 2 2 4 -23 4 -25 0 -35 -2 -22 -4z"/>
<path d="M3450 3891 c0 -5 7 -15 17 -22 9 -8 24 -32 34 -54 10 -22 19 -33 19
-24 0 14 -57 109 -66 109 -2 0 -4 -4 -4 -9z"/>
<path d="M2345 3760 c-3 -5 -1 -10 4 -10 6 0 11 5 11 10 0 6 -2 10 -4 10 -3 0
-8 -4 -11 -10z"/>
<path d="M2190 3570 c0 -5 5 -10 10 -10 6 0 10 -4 10 -9 0 -4 -28 -8 -62 -8
-75 1 -178 -20 -318 -65 -69 -23 -100 -39 -140 -75 -35 -32 -39 -18 -4 20 l29
32 -29 -25 c-41 -36 -77 -96 -70 -117 4 -13 3 -15 -4 -5 -7 11 -11 10 -16 -4
-11 -29 10 -39 35 -15 13 11 28 21 35 21 6 0 17 7 24 15 9 10 9 15 1 15 -22 0
-10 18 20 30 25 11 32 11 39 0 7 -11 16 -10 52 3 42 15 74 22 148 32 19 2 62
9 95 15 75 12 175 13 195 0 12 -8 12 -10 -3 -16 -21 -8 -22 -21 -2 -21 8 0 17
7 19 14 3 8 10 12 15 8 6 -3 8 -12 4 -20 -3 -9 1 -15 11 -15 10 0 16 9 16 25
0 14 4 25 10 25 5 0 6 -8 3 -17 -6 -16 -5 -16 11 -4 18 15 18 30 -5 113 -10
40 -29 52 -29 18 0 -29 -14 -25 -44 15 -26 33 -56 47 -56 25z m-365 -122 c-22
-11 -49 -30 -59 -41 -13 -13 -21 -16 -24 -9 -2 7 -9 9 -14 6 -7 -5 -8 -2 -3 6
9 14 103 59 125 59 8 0 -3 -9 -25 -21z m-5 -32 c0 -2 -7 -7 -16 -10 -8 -3 -12
-2 -9 4 6 10 25 14 25 6z"/>
<path d="M2433 3445 c-10 -67 -9 -85 2 -73 11 10 21 105 15 124 -5 12 -11 -5
-17 -51z"/>
<path d="M2530 3486 c0 -14 5 -26 10 -26 6 0 10 9 10 19 0 11 -4 23 -10 26 -6
4 -10 -5 -10 -19z"/>
<path d="M1730 3470 c-9 -6 -10 -10 -3 -10 6 0 15 5 18 10 8 12 4 12 -15 0z"/>
<path d="M2098 3392 c18 -10 30 -21 26 -25 -4 -4 10 -14 30 -22 27 -12 36 -20
32 -32 -4 -10 -2 -14 8 -10 10 4 13 1 9 -8 -3 -10 -10 -12 -21 -6 -29 15 -155
13 -207 -3 -27 -9 -61 -16 -73 -16 l-24 0 21 38 22 37 -26 -30 c-15 -16 -45
-49 -68 -72 -43 -45 -43 -55 1 -24 38 26 117 51 186 58 75 8 68 -9 -11 -26
-32 -7 -82 -22 -111 -34 -62 -23 -167 -98 -152 -107 6 -4 8 -15 4 -24 -6 -17
-5 -17 23 -3 16 9 60 18 98 22 79 7 85 9 85 36 0 10 5 19 11 19 5 0 7 -4 4
-10 -3 -5 1 -10 9 -10 9 0 16 -4 16 -9 0 -5 10 -7 23 -5 l22 5 -22 -10 c-28
-13 -30 -25 -3 -18 19 5 26 -8 21 -36 -1 -5 8 -5 20 -2 15 5 10 -3 -17 -28
l-38 -34 54 5 c30 3 59 10 65 16 17 17 26 46 14 46 -16 0 14 26 38 34 12 4 24
13 27 21 8 21 -32 29 -100 20 l-55 -7 3 34 c2 28 7 34 31 36 15 2 27 -1 27 -7
0 -6 6 -11 14 -11 8 0 31 -10 51 -21 45 -27 54 -19 20 15 -29 29 -27 56 2 56
15 0 16 -2 3 -10 -21 -13 -11 -19 43 -21 52 -3 73 -12 63 -27 -3 -6 -32 -30
-64 -54 -32 -24 -57 -49 -54 -56 2 -7 -7 -27 -20 -45 -47 -62 -49 -79 -4 -30
24 25 26 26 44 10 17 -16 18 -15 14 20 -4 32 0 40 46 82 95 87 92 111 -25 217
-84 76 -95 82 -138 83 l-30 0 33 -17z m-205 -252 c4 -17 0 -20 -24 -20 -44 0
-37 36 7 39 7 1 14 -8 17 -19z"/>
<path d="M2230 3360 c-8 -5 -10 -10 -5 -10 6 0 17 5 25 10 8 5 11 10 5 10 -5
0 -17 -5 -25 -10z"/>
<path d="M2301 3349 c-11 -19 -11 -21 4 -15 9 3 19 6 21 6 2 0 4 7 4 15 0 21
-13 19 -29 -6z"/>
<path d="M2250 3332 c0 -5 8 -17 19 -26 17 -15 19 -15 25 -1 3 9 2 13 -4 10
-6 -3 -13 1 -16 9 -6 17 -24 22 -24 8z"/>
<path d="M2314 3285 c8 -8 17 -15 20 -15 3 0 3 7 0 15 -4 8 -13 15 -21 15 -12
0 -12 -2 1 -15z"/>
<path d="M1580 3199 c0 -5 5 -7 10 -4 6 3 10 8 10 11 0 2 -4 4 -10 4 -5 0 -10
-5 -10 -11z"/>
<path d="M1695 3045 c-3 -8 -7 -21 -9 -28 -3 -9 7 -13 31 -13 l34 0 -26 14
c-16 8 -24 19 -21 28 3 8 3 14 0 14 -2 0 -7 -7 -9 -15z"/>
<path d="M2415 2690 c27 -12 35 -12 35 0 0 6 -12 10 -27 9 -25 0 -26 -1 -8 -9z"/>
<path d="M1926 2645 c-9 -26 -7 -32 5 -12 6 10 9 21 6 23 -2 3 -7 -2 -11 -11z"/>
<path d="M1476 2514 c-5 -14 -4 -15 9 -4 17 14 19 20 6 20 -5 0 -12 -7 -15
-16z"/>
<path d="M1433 2489 c-31 -11 -47 -44 -29 -58 8 -7 17 -24 21 -39 6 -25 8 -26
20 -9 9 12 14 14 17 6 7 -21 38 -1 37 23 0 13 -3 17 -6 11 -2 -7 -11 -13 -20
-13 -12 0 -13 8 -8 39 7 44 0 53 -32 40z"/>
<path d="M1537 2386 l-28 -31 18 30 c12 19 13 26 4 21 -14 -9 -82 -148 -75
-155 4 -5 39 35 56 64 10 18 10 19 -5 6 -10 -7 -17 -9 -17 -3 0 5 11 17 25 26
24 16 61 64 54 70 -2 1 -17 -11 -32 -28z"/>
<path d="M1407 2383 c-4 -3 -7 -11 -7 -17 0 -6 5 -5 12 2 6 6 9 14 7 17 -3 3
-9 2 -12 -2z"/>
<path d="M1355 2359 c-4 -6 -5 -12 -2 -15 2 -3 7 2 10 11 7 17 1 20 -8 4z"/>
<path d="M1530 2308 c-12 -22 -12 -22 6 -6 10 10 15 20 12 24 -4 3 -12 -5 -18
-18z"/>
<path d="M1224 2143 c-3 -10 -17 -47 -30 -82 -27 -69 -26 -93 2 -39 17 33 46
138 38 138 -3 0 -7 -8 -10 -17z"/>
<path d="M1164 2112 c-6 -4 -8 -16 -4 -27 7 -19 7 -19 18 2 18 33 12 43 -14
25z"/>
<path d="M1525 2080 c-4 -6 -11 -7 -17 -4 -7 4 -8 2 -4 -5 5 -7 -6 -24 -26
-43 -18 -17 -27 -28 -21 -24 12 7 -38 -93 -60 -122 -5 -7 -7 -15 -4 -18 3 -3
11 5 18 18 6 12 52 62 100 109 49 47 89 89 89 93 0 9 -43 -14 -52 -28 -4 -6
-10 -7 -14 -3 -4 3 -1 13 6 22 8 9 8 15 2 15 -6 0 -14 -5 -17 -10z"/>
<path d="M1420 2010 c0 -5 5 -10 11 -10 5 0 7 5 4 10 -3 6 -8 10 -11 10 -2 0
-4 -4 -4 -10z"/>
<path d="M1111 1987 c-22 -27 -42 -91 -47 -146 l-4 -56 15 39 c31 80 74 102
76 39 2 -53 -1 -95 -8 -118 -5 -18 -3 -17 22 5 35 33 61 69 70 100 6 22 4 21
-23 -10 l-30 -35 18 80 c10 44 21 88 25 98 13 30 -9 18 -78 -44 -71 -64 -82
-61 -42 15 25 46 27 57 6 33z"/>
<path d="M1035 1710 c3 -5 21 -10 38 -9 27 0 29 2 12 9 -28 12 -57 12 -50 0z"/>
<path d="M471 1476 c2 -2 18 -6 34 -10 22 -5 26 -4 15 4 -14 9 -59 15 -49 6z"/>
<path d="M373 1448 c-29 -15 -43 -28 -43 -42 0 -18 3 -17 29 8 16 15 46 34 67
41 32 12 34 14 14 14 -14 1 -44 -9 -67 -21z"/>
<path d="M290 1400 c0 -5 5 -10 10 -10 6 0 10 5 10 10 0 6 -4 10 -10 10 -5 0
-10 -4 -10 -10z"/>
<path d="M75 1341 c22 -10 51 -21 65 -24 14 -4 7 2 -15 12 -22 10 -51 22 -65
25 -14 3 -7 -2 15 -13z"/>
<path d="M3762 119 c-13 -5 -36 -10 -53 -11 -16 -1 -29 -5 -29 -8 0 -13 76
-67 118 -83 52 -21 67 -21 30 -1 -30 15 -37 48 -14 57 7 3 18 1 24 -5 8 -8 15
-8 25 1 16 12 72 -2 64 -16 -3 -5 6 -9 20 -10 21 -1 23 1 12 12 -12 10 -162
76 -171 74 -2 0 -13 -4 -26 -10z"/>
</g>
</svg>
